<?xml version="1.0" encoding="utf-8"?>
<!-- Generator: Adobe Illustrator 27.7.0, SVG Export Plug-In . SVG Version: 6.00 Build 0)  -->
<svg version="1.1" xmlns="http://www.w3.org/2000/svg" xmlns:xlink="http://www.w3.org/1999/xlink" x="0px" y="0px"
	 viewBox="0 0 60 60" style="enable-background:new 0 0 60 60;" xml:space="preserve">
<style type="text/css">
	.st0{fill:#E92080;}
	.st1{fill:#7E00D6;}
	.st2{fill:#F7BE00;}
	.st3{fill:#FFFFFF;}
	.st4{fill:none;}
</style>
<g id="Purple">
</g>
<g id="White">
	<g>
		<g>
			<g>
				<g>
					<path class="st2" d="M29,32.72c-0.55,0-1-0.45-1-1v-3.3c0-0.55,0.45-1,1-1s1,0.45,1,1v3.3C30,32.27,29.55,32.72,29,32.72z"/>
				</g>
				<g>
					<path class="st2" d="M34.85,31.15c-0.35,0-0.68-0.18-0.87-0.5l-1.65-2.85c-0.28-0.48-0.11-1.09,0.37-1.37
						c0.48-0.28,1.09-0.11,1.37,0.37l1.65,2.85c0.28,0.48,0.11,1.09-0.37,1.37C35.19,31.11,35.01,31.15,34.85,31.15z"/>
				</g>
				<g>
					<path class="st2" d="M39.12,26.87c-0.17,0-0.34-0.04-0.5-0.13l-2.85-1.65c-0.48-0.28-0.64-0.89-0.37-1.37
						c0.28-0.48,0.89-0.64,1.37-0.37l2.85,1.65c0.48,0.28,0.64,0.89,0.37,1.37C39.8,26.69,39.47,26.87,39.12,26.87z"/>
				</g>
				<g>
					<path class="st2" d="M40.69,21.03h-3.3c-0.55,0-1-0.45-1-1s0.45-1,1-1h3.3c0.55,0,1,0.45,1,1S41.24,21.03,40.69,21.03z"/>
				</g>
				<g>
					<path class="st2" d="M36.27,16.83c-0.35,0-0.68-0.18-0.87-0.5c-0.28-0.48-0.11-1.09,0.37-1.37l2.85-1.65
						c0.48-0.28,1.09-0.11,1.37,0.37c0.28,0.48,0.11,1.09-0.37,1.37l-2.85,1.65C36.61,16.79,36.44,16.83,36.27,16.83z"/>
				</g>
				<g>
					<path class="st2" d="M33.2,13.76c-0.17,0-0.34-0.04-0.5-0.13c-0.48-0.28-0.64-0.89-0.37-1.37l1.65-2.85
						c0.28-0.48,0.89-0.64,1.37-0.37c0.48,0.28,0.64,0.89,0.37,1.37l-1.65,2.85C33.88,13.58,33.54,13.76,33.2,13.76z"/>
				</g>
			</g>
			<g>
				<g>
					<path class="st2" d="M29,12.69c-0.55,0-1-0.45-1-1v-3.3c0-0.55,0.45-1,1-1s1,0.45,1,1v3.3C30,12.24,29.55,12.69,29,12.69z"/>
				</g>
				<g>
					<path class="st2" d="M24.8,13.81c-0.35,0-0.68-0.18-0.87-0.5l-1.65-2.85c-0.28-0.48-0.11-1.09,0.37-1.37
						c0.48-0.28,1.09-0.11,1.37,0.37l1.65,2.85c0.28,0.48,0.11,1.09-0.37,1.37C25.15,13.77,24.97,13.81,24.8,13.81z"/>
				</g>
				<g>
					<path class="st2" d="M21.73,16.89c-0.17,0-0.34-0.04-0.5-0.13l-2.85-1.65c-0.48-0.28-0.64-0.89-0.37-1.37s0.89-0.64,1.37-0.37
						l2.85,1.65c0.48,0.28,0.64,0.89,0.37,1.37C22.41,16.71,22.08,16.89,21.73,16.89z"/>
				</g>
				<g>
					<path class="st2" d="M20.61,21.08h-3.3c-0.55,0-1-0.45-1-1s0.45-1,1-1h3.3c0.55,0,1,0.45,1,1S21.16,21.08,20.61,21.08z"/>
				</g>
				<g>
					<path class="st2" d="M18.88,26.93c-0.35,0-0.68-0.18-0.87-0.5c-0.28-0.48-0.11-1.09,0.37-1.37l2.85-1.65
						c0.48-0.28,1.09-0.11,1.37,0.37c0.28,0.48,0.11,1.09-0.37,1.37l-2.85,1.65C19.22,26.88,19.05,26.93,18.88,26.93z"/>
				</g>
				<g>
					<path class="st2" d="M23.15,31.21c-0.17,0-0.34-0.04-0.5-0.13c-0.48-0.28-0.64-0.89-0.37-1.37l1.65-2.85
						c0.28-0.48,0.89-0.64,1.37-0.37c0.48,0.28,0.64,0.89,0.37,1.37l-1.65,2.85C23.84,31.03,23.5,31.21,23.15,31.21z"/>
				</g>
			</g>
		</g>
		<g>
			<path class="st3" d="M25.9,52.94h-9.2c-0.55,0-1.24-0.09-2.1-0.27c-3.5-0.73-6.42-2.99-7.8-6.04c-0.91-2-0.92-3.62-0.92-3.69
				c0.01-2.59,3.93-4.78,6.25-5.66c2.74-1.04,8.65,0.63,9.88,1.01c0.16-0.01,0.4-0.03,0.72-0.06c5.1-0.43,10.03-0.54,11.5,1.57
				c0.52,0.75,0.72,1.43,0.75,2.01c0.11-0.08,0.21-0.15,0.32-0.23c2.67-2.05,7.6-5.06,9.97-6.5l0.59-0.36
				c0.2-0.12,0.4-0.25,0.59-0.38c1.59-1.03,3.98-2.57,6.57,0.16c0.78,0.83,1.16,1.81,1.1,2.83c-0.12,1.96-1.8,3.4-1.99,3.55
				c-0.51,0.35-10.8,7.31-14.16,9.34c-2.67,1.62-7.43,2.33-10.02,2.61C27.28,52.9,26.59,52.94,25.9,52.94z M14.4,38.94
				c-0.63,0-1.17,0.06-1.56,0.21c-2.97,1.13-4.96,2.88-4.97,3.8c0,0,0.02,1.27,0.74,2.86c1.12,2.47,3.51,4.31,6.39,4.91
				c0.9,0.19,1.42,0.23,1.7,0.23h9.2c0.63,0,1.23-0.03,1.83-0.1c1.96-0.21,6.77-0.86,9.2-2.34c3.32-2.01,13.89-9.16,14-9.23
				c0.25-0.22,1.13-1.15,1.19-2.09c0.03-0.46-0.16-0.9-0.56-1.32c-1.38-1.46-2.28-0.98-4.03,0.14c-0.21,0.14-0.42,0.27-0.63,0.4
				l-0.59,0.36c-2.16,1.32-7.21,4.4-9.8,6.38c-0.97,0.74-2.04,1.34-3.21,1.78l-0.62,0.23c-0.3,0.15-0.6,0.27-0.89,0.35
				c-0.3,0.09-0.63,0.14-0.98,0.17c-1.97,0.12-10.21,0.01-10.56,0c-0.55-0.01-0.99-0.46-0.99-1.01c0.01-0.55,0.45-0.99,1-0.99
				c0.01,0,0.01,0,0.02,0c0.08,0,8.52,0.12,10.41,0c0.14-0.01,0.27-0.03,0.39-0.05c0.01-0.01,0.03-0.01,0.04-0.02l0.74-0.28
				c0.49-0.26,0.93-0.64,1.07-1.06c0.05-0.14,0.2-0.57-0.33-1.34c-0.38-0.54-2.14-1.36-9.69-0.72c-0.51,0.04-0.87,0.07-1.02,0.07
				c-0.1,0-0.2-0.02-0.3-0.04C19.67,39.66,16.52,38.94,14.4,38.94z"/>
		</g>
	</g>
</g>
<g id="Box">
	<rect class="st4" width="60" height="60"/>
</g>
</svg>
